<?xml version="1.0" encoding="UTF-8"?><svg id="LOGOS" xmlns="http://www.w3.org/2000/svg" viewBox="0 0 1000 1000"><defs><style>.cls-1{fill:#231f20;}</style></defs><path class="cls-1" d="M724,428c-35.29,0-64,28.71-64,64,0,11.05,8.96,20,20,20s20-8.95,20-20c0-13.23,10.77-24,24-24s24,10.77,24,24c0,11.05,8.96,20,20,20s20-8.95,20-20c0-35.29-28.71-64-64-64Z"/><path class="cls-1" d="M724,300c-88.72,0-163.93,57.77-190.11,137.75-9.84-6.17-21.45-9.75-33.89-9.75s-24.06,3.58-33.89,9.75c-26.17-79.97-101.39-137.75-190.11-137.75-110.46,0-200,89.54-200,200s89.54,200,200,200,200-89.54,200-200c0-2.02-.04-4.03-.1-6.03.06-.65.1-1.3.1-1.97,0-13.23,10.77-24,24-24s24,10.77,24,24c0,.66.04,1.31.1,1.95-.06,2.01-.1,4.03-.1,6.05,0,110.46,89.54,200,200,200s200-89.54,200-200-89.54-200-200-200ZM276,620c-66.27,0-120-53.73-120-120s53.73-120,120-120,120,53.73,120,120-53.73,120-120,120ZM724,620c-66.27,0-120-53.73-120-120s53.73-120,120-120,120,53.73,120,120-53.73,120-120,120Z"/><path class="cls-1" d="M276,428c-35.29,0-64,28.71-64,64,0,11.05,8.96,20,20,20s20-8.95,20-20c0-13.23,10.77-24,24-24s24,10.77,24,24c0,11.05,8.96,20,20,20s20-8.95,20-20c0-35.29-28.71-64-64-64Z"/></svg>